<svg width="21" height="20" viewBox="0 0 21 20" fill="none" xmlns="http://www.w3.org/2000/svg">
<rect x="0.863281" width="20" height="20" rx="10" fill="#389ED9"/>
<path d="M12.2168 6.81793L15.0453 9.64643C15.139 9.74019 15.1917 9.86735 15.1917 9.99993C15.1917 10.1325 15.139 10.2597 15.0453 10.3534L12.2168 13.1819C12.1225 13.273 11.9962 13.3234 11.8651 13.3223C11.734 13.3211 11.6086 13.2685 11.5159 13.1758C11.4232 13.0831 11.3706 12.9577 11.3694 12.8266C11.3683 12.6955 11.4187 12.5692 11.5098 12.4749L13.4848 10.4999H6.86328C6.73067 10.4999 6.6035 10.4472 6.50973 10.3535C6.41596 10.2597 6.36328 10.1325 6.36328 9.99993C6.36328 9.86732 6.41596 9.74014 6.50973 9.64637C6.6035 9.55261 6.73067 9.49993 6.86328 9.49993H13.4848L11.5098 7.52493C11.462 7.4788 11.4239 7.42363 11.3977 7.36263C11.3715 7.30163 11.3577 7.23602 11.3572 7.16963C11.3566 7.10324 11.3692 7.0374 11.3944 6.97595C11.4195 6.9145 11.4566 6.85868 11.5036 6.81173C11.5505 6.76478 11.6064 6.72766 11.6678 6.70252C11.7293 6.67738 11.7951 6.66473 11.8615 6.6653C11.9279 6.66588 11.9935 6.67967 12.0545 6.70588C12.1155 6.73208 12.1707 6.77017 12.2168 6.81793Z" fill="white"/>
</svg>
