<svg width="20" height="21" viewBox="0 0 20 21" fill="none" xmlns="http://www.w3.org/2000/svg">
<rect y="0.75" width="20" height="20" rx="10" fill="white"/>
<path d="M11.3535 7.56793L14.182 10.3964C14.2757 10.4902 14.3284 10.6173 14.3284 10.7499C14.3284 10.8825 14.2757 11.0097 14.182 11.1034L11.3535 13.9319C11.2592 14.023 11.1329 14.0734 11.0018 14.0723C10.8707 14.0711 10.7453 14.0185 10.6526 13.9258C10.5599 13.8331 10.5073 13.7077 10.5062 13.5766C10.505 13.4455 10.5554 13.3192 10.6465 13.2249L12.6215 11.2499H6C5.86739 11.2499 5.74021 11.1972 5.64645 11.1035C5.55268 11.0097 5.5 10.8825 5.5 10.7499C5.5 10.6173 5.55268 10.4901 5.64645 10.3964C5.74021 10.3026 5.86739 10.2499 6 10.2499H12.6215L10.6465 8.27493C10.5987 8.2288 10.5607 8.17363 10.5344 8.11263C10.5082 8.05163 10.4945 7.98602 10.4939 7.91963C10.4933 7.85324 10.5059 7.7874 10.5311 7.72595C10.5562 7.6645 10.5934 7.60868 10.6403 7.56173C10.6872 7.51478 10.7431 7.47766 10.8045 7.45252C10.866 7.42738 10.9318 7.41473 10.9982 7.4153C11.0646 7.41588 11.1302 7.42967 11.1912 7.45588C11.2522 7.48208 11.3074 7.52017 11.3535 7.56793Z" fill="#389ED9"/>
</svg>
