<svg width="117" height="108" viewBox="0 0 117 108" fill="none" xmlns="http://www.w3.org/2000/svg">
<g clip-path="url(#clip0_1_217)">
<path opacity="0.1" fill-rule="evenodd" clip-rule="evenodd" d="M92.6401 69.2336C85.0663 82.1997 72.0657 86.6402 60.3847 90.1206C50.0087 93.2122 40.1152 93.1316 32.8103 87.06C24.6567 80.283 17.3585 70.3017 19.6844 56.2917C21.9965 42.3649 33.3118 31.3967 43.6309 21.8824C53.6296 12.6636 64.6413 4.17314 75.0674 5.22831C86.0964 6.34449 93.7761 15.2424 97.0843 27.2921C100.525 39.8237 100.597 55.6111 92.6401 69.2336Z" fill="#B1CF1F"/>
<path opacity="0.1" fill-rule="evenodd" clip-rule="evenodd" d="M50.5283 79.403C34.1041 78.2911 23.4245 70.391 14.3297 63.1215C6.2509 56.6641 1.52464 49.4885 3.94482 42.1686C6.64621 33.9982 12.9128 25.3683 27.8142 22.3373C42.627 19.3243 58.9047 23.8115 73.2692 28.0678C87.1877 32.192 100.882 37.2931 104.909 45.1812C109.169 53.5254 104.153 62.0666 93.9147 68.5093C83.2675 75.2096 67.7839 80.5712 50.5283 79.403Z" fill="#B1CF1F"/>
<path opacity="0.2" fill-rule="evenodd" clip-rule="evenodd" d="M48.9926 73.0292C34.5208 65.1834 28.0973 53.5557 22.8526 43.1608C18.1937 33.9272 16.8821 25.4357 22.1289 19.7868C27.9853 13.4816 37.2747 8.24217 52.0859 11.6871C66.809 15.1116 79.7431 25.9655 91.0335 35.8134C101.973 45.3555 112.303 55.6928 112.682 64.5412C113.083 73.9013 104.968 79.5803 92.9773 81.1783C80.5075 82.8402 64.1971 81.2722 48.9926 73.0292Z" stroke="#B1CF1F"/>
<path opacity="0.2" fill-rule="evenodd" clip-rule="evenodd" d="M28.3784 34.6112C37.4634 20.2034 51.4336 15.1809 63.9394 11.2318C75.0481 7.72386 85.3641 7.7292 92.4327 14.384C100.323 21.812 107.028 32.7919 103.324 48.3101C99.6413 63.7361 86.8344 75.9655 75.1995 86.578C63.9259 96.861 51.6617 106.347 40.8789 105.268C29.4725 104.126 22.2705 94.3482 19.9171 81.0463C17.4696 67.2125 18.8335 49.7484 28.3784 34.6112Z" stroke="#B1CF1F"/>
<path opacity="0.5" fill-rule="evenodd" clip-rule="evenodd" d="M60.5074 10.0491C73.2552 10.7738 81.7437 21.1996 88.9877 30.8297C95.4223 39.384 99.2811 49.1012 97.6106 59.3743C95.746 70.841 91.1337 83.1225 79.68 88.0681C68.2944 92.9843 55.5662 87.5708 44.3258 82.3822C33.4344 77.3548 22.6892 70.9612 19.3521 60.2209C15.822 48.8595 19.4687 36.7633 27.2167 27.3179C35.2745 17.4947 47.1142 9.28763 60.5074 10.0491Z" stroke="#B1CF1F"/>
</g>
<path fill-rule="evenodd" clip-rule="evenodd" d="M53.5771 37.4999L58 35.5338L69.9224 40.8337L65.4975 42.8003C65.4701 42.7867 65.4424 42.7737 65.4144 42.7612L53.5771 37.4999ZM50.4997 38.8679L46.0775 40.8336L58 46.1325L62.4222 44.1671L50.4997 38.8679ZM44.25 42.7566V58.354L56.75 63.9105V48.3121L44.25 42.7566ZM59.25 63.9105L71.75 58.354V42.7566L66.75 44.9788V50.8334C66.75 51.5238 66.1903 52.0834 65.5 52.0834C64.8096 52.0834 64.25 51.5238 64.25 50.8334V46.0899L59.25 48.3121V63.9105ZM41.75 41.4833V58.5167C41.7501 58.9516 41.8762 59.3775 42.1132 59.7422C42.3501 60.1069 42.6882 60.3954 43.0856 60.5722L57.0856 66.7956C57.3734 66.9236 57.685 66.9898 58 66.9898C58.315 66.9898 58.6271 66.9233 58.915 66.7953L72.915 60.572C73.3123 60.3951 73.6499 60.1069 73.8868 59.7422C74.1237 59.3775 74.2499 58.9516 74.25 58.5167V41.483C74.2499 41.0481 74.1237 40.6226 73.8868 40.2578C73.6499 39.8931 73.3117 39.6046 72.9144 39.4278L58.9144 33.2044C58.6266 33.0764 58.315 33.0103 58 33.0103C57.6849 33.0103 57.3728 33.0767 57.085 33.2047L43.085 39.428C42.6877 39.6049 42.3501 39.8931 42.1132 40.2578C41.8762 40.6226 41.7501 41.0484 41.75 41.4833Z" fill="#B1CF1F"/>
<defs>
<clipPath id="clip0_1_217">
<rect width="117" height="108" fill="white"/>
</clipPath>
</defs>
</svg>
