<svg width="25" height="24" viewBox="0 0 25 24" fill="none" xmlns="http://www.w3.org/2000/svg">
<path d="M16.7669 7.19034C17.1212 6.51108 17.3219 5.73952 17.3219 4.92188C17.3219 2.20795 15.1139 0 12.4 0C9.68607 0 7.47812 2.20795 7.47812 4.92188C7.47812 5.73952 7.67879 6.51108 8.03307 7.19034C4.56732 7.91016 1.85312 11.0585 1.85312 14.8594V15.8501C1.85312 18.1195 2.7369 20.2531 4.34167 21.8579C4.81623 22.3324 5.44717 22.5938 6.11818 22.5938C7.21637 22.5937 8.14998 21.9146 8.49207 20.8765C9.43867 21.7245 10.6928 22.7478 11.9394 23.8282C12.0716 23.9427 12.2357 24 12.3999 24C12.5641 24 12.7283 23.9427 12.8604 23.8282C14.1176 22.7386 15.3602 21.726 16.3092 20.8762C16.6503 21.9143 17.5834 22.5937 18.6818 22.5938C19.3528 22.5938 19.9837 22.3324 20.4583 21.8579C22.0631 20.2531 22.9469 18.1195 22.9469 15.8501V14.8594C22.9469 11.0598 20.2343 7.91053 16.7669 7.19034ZM12.4 1.40625C14.3385 1.40625 15.9156 2.98336 15.9156 4.92188C15.9156 6.86039 14.3385 8.4375 12.4 8.4375C10.4615 8.4375 8.88437 6.86039 8.88437 4.92188C8.88437 2.98336 10.4615 1.40625 12.4 1.40625ZM16.8249 18.3895C16.8245 18.3899 16.8242 18.3902 16.8238 18.3906C16.8226 18.392 16.8215 18.3934 16.8204 18.3947C16.5791 18.6722 16.2968 18.9643 15.9686 19.2777C15.0263 20.1778 13.812 21.1594 12.4 22.3689C9.04313 19.4939 6.81554 17.9159 6.81554 15.8111C6.81554 14.2665 7.86479 13.1016 9.25618 13.1016C9.99615 13.1016 10.6267 13.4509 11.1303 14.1397C11.5488 14.712 11.7213 15.3073 11.7223 15.3107C11.8067 15.6153 12.0835 15.8274 12.3996 15.8274C12.7157 15.8274 12.9925 15.6178 13.0769 15.3132C13.0786 15.3073 13.2511 14.712 13.6696 14.1397C14.1732 13.4509 14.8037 13.1016 15.5437 13.1016C16.9352 13.1016 17.9844 14.2665 17.9844 15.8111C17.9844 16.6678 17.6467 17.4428 16.8249 18.3895ZM21.5406 15.8501C21.5406 17.7439 20.8031 19.5244 19.4641 20.8635C19.255 21.0724 18.9773 21.1875 18.6818 21.1875C17.7173 21.1875 17.2698 20.0874 17.8514 19.3555C18.7238 18.3627 19.3907 17.2281 19.3907 15.8111C19.3907 13.568 17.793 11.6953 15.5438 11.6953C14.3304 11.6953 13.2792 12.2681 12.5041 13.3516C12.468 13.4021 12.4333 13.4526 12.4 13.5029C12.3667 13.4526 12.332 13.4021 12.2959 13.3516C11.5208 12.2681 10.4696 11.6953 9.25618 11.6953C7.00613 11.6953 5.40929 13.5688 5.40929 15.8111C5.40929 17.1777 6.02931 18.2953 6.93024 19.3298C7.54393 20.0627 7.09267 21.1875 6.11818 21.1875C5.82268 21.1875 5.54495 21.0724 5.33593 20.8635C3.99685 19.5244 3.25937 17.7439 3.25937 15.8501V14.8594C3.25937 11.5779 5.80224 8.77364 8.98829 8.46591C9.87371 9.31856 11.0766 9.84375 12.4 9.84375C13.7234 9.84375 14.9263 9.31856 15.8117 8.46591C18.9977 8.77364 21.5406 11.5779 21.5406 14.8594V15.8501Z" fill="#636363"/>
</svg>
