<svg width="20" height="19" viewBox="0 0 20 19" fill="none" xmlns="http://www.w3.org/2000/svg">
<path d="M1 0.75H19C19.2652 0.75 19.5196 0.855357 19.7071 1.04289C19.8946 1.23043 20 1.48478 20 1.75V17.75C20 18.0152 19.8946 18.2696 19.7071 18.4571C19.5196 18.6446 19.2652 18.75 19 18.75H1C0.734784 18.75 0.48043 18.6446 0.292893 18.4571C0.105357 18.2696 0 18.0152 0 17.75V1.75C0 1.48478 0.105357 1.23043 0.292893 1.04289C0.48043 0.855357 0.734784 0.75 1 0.75ZM18 4.988L10.072 12.088L2 4.966V16.75H18V4.988ZM2.511 2.75L10.061 9.412L17.502 2.75H2.511Z" fill="#28292B"/>
</svg>
