<svg width="24" height="25" viewBox="0 0 24 25" fill="none" xmlns="http://www.w3.org/2000/svg">
<path d="M0 12.25C0 18.8774 5.37258 24.25 12 24.25C18.6274 24.25 24 18.8774 24 12.25C24 5.62258 18.6274 0.25 12 0.25C5.37258 0.25 0 5.62258 0 12.25Z" fill="#636363"/>
<path d="M18 12.25C18 8.95 15.3 6.25 12 6.25C8.7 6.25 6 8.95 6 12.25C6 15.25 8.175 17.725 11.025 18.175V13.975H9.525V12.25H11.025V10.9C11.025 9.4 11.925 8.575 13.275 8.575C13.95 8.575 14.625 8.725 14.625 8.725V10.225H13.875C13.125 10.225 12.9 10.675 12.9 11.125V12.25H14.55L14.25 13.975H12.825V18.25C15.825 17.8 18 15.25 18 12.25Z" fill="white"/>
</svg>
