<svg width="14" height="13" viewBox="0 0 14 13" fill="none" xmlns="http://www.w3.org/2000/svg">
<path d="M6.99999 1.1499C8.64999 1.1499 8.87499 1.1499 9.54999 1.1499C10.15 1.1499 10.45 1.2999 10.675 1.3749C10.975 1.5249 11.2 1.5999 11.425 1.8249C11.65 2.0499 11.8 2.2749 11.875 2.5749C11.95 2.7999 12.025 3.0999 12.1 3.6999C12.1 4.3749 12.1 4.5249 12.1 6.2499C12.1 7.9749 12.1 8.1249 12.1 8.7999C12.1 9.3999 11.95 9.6999 11.875 9.9249C11.725 10.2249 11.65 10.4499 11.425 10.6749C11.2 10.8999 10.975 11.0499 10.675 11.1249C10.45 11.1999 10.15 11.2749 9.54999 11.3499C8.87499 11.3499 8.72499 11.3499 6.99999 11.3499C5.27499 11.3499 5.12499 11.3499 4.44999 11.3499C3.84999 11.3499 3.54999 11.1999 3.32499 11.1249C3.02499 10.9749 2.79999 10.8999 2.57499 10.6749C2.34999 10.4499 2.19999 10.2249 2.12499 9.9249C2.04999 9.6999 1.97499 9.3999 1.89999 8.7999C1.89999 8.1249 1.89999 7.9749 1.89999 6.2499C1.89999 4.5249 1.89999 4.3749 1.89999 3.6999C1.89999 3.0999 2.04999 2.7999 2.12499 2.5749C2.27499 2.2749 2.34999 2.0499 2.57499 1.8249C2.79999 1.5999 3.02499 1.4499 3.32499 1.3749C3.54999 1.2999 3.84999 1.2249 4.44999 1.1499C5.12499 1.1499 5.34999 1.1499 6.99999 1.1499ZM6.99999 0.0249023C5.27499 0.0249023 5.12499 0.0249023 4.44999 0.0249023C3.77499 0.0249023 3.32499 0.174903 2.94999 0.324903C2.57499 0.474903 2.19999 0.699903 1.82499 1.0749C1.44999 1.4499 1.29999 1.7499 1.07499 2.1999C0.924994 2.5749 0.849994 3.0249 0.774994 3.6999C0.774994 4.3749 0.774994 4.5999 0.774994 6.2499C0.774994 7.9749 0.774994 8.1249 0.774994 8.7999C0.774994 9.4749 0.924994 9.9249 1.07499 10.2999C1.22499 10.6749 1.44999 11.0499 1.82499 11.4249C2.19999 11.7999 2.49999 11.9499 2.94999 12.1749C3.32499 12.3249 3.77499 12.3999 4.44999 12.4749C5.12499 12.4749 5.34999 12.4749 6.99999 12.4749C8.64999 12.4749 8.87499 12.4749 9.54999 12.4749C10.225 12.4749 10.675 12.3249 11.05 12.1749C11.425 12.0249 11.8 11.7999 12.175 11.4249C12.55 11.0499 12.7 10.7499 12.925 10.2999C13.075 9.9249 13.15 9.4749 13.225 8.7999C13.225 8.1249 13.225 7.8999 13.225 6.2499C13.225 4.5999 13.225 4.3749 13.225 3.6999C13.225 3.0249 13.075 2.5749 12.925 2.1999C12.775 1.8249 12.55 1.4499 12.175 1.0749C11.8 0.699903 11.5 0.549903 11.05 0.324903C10.675 0.174903 10.225 0.0999023 9.54999 0.0249023C8.87499 0.0249023 8.72499 0.0249023 6.99999 0.0249023Z" fill="white"/>
<path d="M6.99999 3.0249C5.19999 3.0249 3.77499 4.4499 3.77499 6.2499C3.77499 8.0499 5.19999 9.4749 6.99999 9.4749C8.79999 9.4749 10.225 8.0499 10.225 6.2499C10.225 4.4499 8.79999 3.0249 6.99999 3.0249ZM6.99999 8.3499C5.87499 8.3499 4.89999 7.4499 4.89999 6.2499C4.89999 5.1249 5.79999 4.1499 6.99999 4.1499C8.12499 4.1499 9.09999 5.0499 9.09999 6.2499C9.09999 7.3749 8.12499 8.3499 6.99999 8.3499Z" fill="white"/>
<path d="M10.3 3.6999C10.7142 3.6999 11.05 3.36412 11.05 2.9499C11.05 2.53569 10.7142 2.1999 10.3 2.1999C9.88578 2.1999 9.54999 2.53569 9.54999 2.9499C9.54999 3.36412 9.88578 3.6999 10.3 3.6999Z" fill="white"/>
</svg>
