<svg width="24" height="25" viewBox="0 0 24 25" fill="none" xmlns="http://www.w3.org/2000/svg">
<path d="M0 12.25C0 18.8774 5.37258 24.25 12 24.25C18.6274 24.25 24 18.8774 24 12.25C24 5.62258 18.6274 0.25 12 0.25C5.37258 0.25 0 5.62258 0 12.25Z" fill="#636363"/>
<path d="M12 7.1499C13.65 7.1499 13.875 7.1499 14.55 7.1499C15.15 7.1499 15.45 7.2999 15.675 7.3749C15.975 7.5249 16.2 7.5999 16.425 7.8249C16.65 8.0499 16.8 8.2749 16.875 8.5749C16.95 8.7999 17.025 9.0999 17.1 9.6999C17.1 10.3749 17.1 10.5249 17.1 12.2499C17.1 13.9749 17.1 14.1249 17.1 14.7999C17.1 15.3999 16.95 15.6999 16.875 15.9249C16.725 16.2249 16.65 16.4499 16.425 16.6749C16.2 16.8999 15.975 17.0499 15.675 17.1249C15.45 17.1999 15.15 17.2749 14.55 17.3499C13.875 17.3499 13.725 17.3499 12 17.3499C10.275 17.3499 10.125 17.3499 9.44999 17.3499C8.84999 17.3499 8.54999 17.1999 8.32499 17.1249C8.02499 16.9749 7.79999 16.8999 7.57499 16.6749C7.34999 16.4499 7.19999 16.2249 7.12499 15.9249C7.04999 15.6999 6.97499 15.3999 6.89999 14.7999C6.89999 14.1249 6.89999 13.9749 6.89999 12.2499C6.89999 10.5249 6.89999 10.3749 6.89999 9.6999C6.89999 9.0999 7.04999 8.7999 7.12499 8.5749C7.27499 8.2749 7.34999 8.0499 7.57499 7.8249C7.79999 7.5999 8.02499 7.4499 8.32499 7.3749C8.54999 7.2999 8.84999 7.2249 9.44999 7.1499C10.125 7.1499 10.35 7.1499 12 7.1499ZM12 6.0249C10.275 6.0249 10.125 6.0249 9.44999 6.0249C8.77499 6.0249 8.32499 6.1749 7.94999 6.3249C7.57499 6.4749 7.19999 6.6999 6.82499 7.0749C6.44999 7.4499 6.29999 7.7499 6.07499 8.1999C5.92499 8.5749 5.84999 9.0249 5.77499 9.6999C5.77499 10.3749 5.77499 10.5999 5.77499 12.2499C5.77499 13.9749 5.77499 14.1249 5.77499 14.7999C5.77499 15.4749 5.92499 15.9249 6.07499 16.2999C6.22499 16.6749 6.44999 17.0499 6.82499 17.4249C7.19999 17.7999 7.49999 17.9499 7.94999 18.1749C8.32499 18.3249 8.77499 18.3999 9.44999 18.4749C10.125 18.4749 10.35 18.4749 12 18.4749C13.65 18.4749 13.875 18.4749 14.55 18.4749C15.225 18.4749 15.675 18.3249 16.05 18.1749C16.425 18.0249 16.8 17.7999 17.175 17.4249C17.55 17.0499 17.7 16.7499 17.925 16.2999C18.075 15.9249 18.15 15.4749 18.225 14.7999C18.225 14.1249 18.225 13.8999 18.225 12.2499C18.225 10.5999 18.225 10.3749 18.225 9.6999C18.225 9.0249 18.075 8.5749 17.925 8.1999C17.775 7.8249 17.55 7.4499 17.175 7.0749C16.8 6.6999 16.5 6.5499 16.05 6.3249C15.675 6.1749 15.225 6.0999 14.55 6.0249C13.875 6.0249 13.725 6.0249 12 6.0249Z" fill="white"/>
<path d="M12 9.0249C10.2 9.0249 8.77499 10.4499 8.77499 12.2499C8.77499 14.0499 10.2 15.4749 12 15.4749C13.8 15.4749 15.225 14.0499 15.225 12.2499C15.225 10.4499 13.8 9.0249 12 9.0249ZM12 14.3499C10.875 14.3499 9.89999 13.4499 9.89999 12.2499C9.89999 11.1249 10.8 10.1499 12 10.1499C13.125 10.1499 14.1 11.0499 14.1 12.2499C14.1 13.3749 13.125 14.3499 12 14.3499Z" fill="white"/>
<path d="M15.3 9.6999C15.7142 9.6999 16.05 9.36412 16.05 8.9499C16.05 8.53569 15.7142 8.1999 15.3 8.1999C14.8858 8.1999 14.55 8.53569 14.55 8.9499C14.55 9.36412 14.8858 9.6999 15.3 9.6999Z" fill="white"/>
</svg>
