<svg width="24" height="24" viewBox="0 0 24 24" fill="none" xmlns="http://www.w3.org/2000/svg">
<g clip-path="url(#clip0_1_325)">
<path d="M23.6974 2.93625C23.5078 2.80486 23.2658 2.77481 23.05 2.85581L21.1875 3.55425V0.701674C21.1875 0.475877 21.0791 0.263814 20.896 0.131627C20.7129 -0.000607699 20.4774 -0.0367952 20.2632 0.0342673L12 2.77345L3.73688 0.0342673C3.52256 -0.0367014 3.28716 -0.000560816 3.10406 0.131627C2.92097 0.263814 2.8125 0.475877 2.8125 0.701674V3.55425L0.950016 2.85581C0.734156 2.77486 0.492234 2.80491 0.302625 2.93625C0.113109 3.0676 0 3.28355 0 3.51417V17.6704C0 17.9847 0.208547 18.2608 0.510797 18.3467L2.8125 19.0013V23.2954C2.8125 23.5159 2.91591 23.7236 3.09183 23.8565C3.2153 23.9498 3.36441 23.9986 3.51567 23.9986C3.57998 23.9986 3.64467 23.9897 3.70795 23.9717L12 21.6138L20.292 23.9718C20.3553 23.9898 20.42 23.9986 20.4843 23.9986C20.6356 23.9986 20.7847 23.9498 20.9082 23.8566C21.0841 23.7237 21.1875 23.516 21.1875 23.2955V19.0013L23.4892 18.3468C23.7915 18.2608 24 17.9847 24 17.6704V3.51417C24 3.28355 23.8869 3.0676 23.6974 2.93625ZM4.21875 13.0185L9.10945 14.6356C10.0783 14.9586 10.8113 15.7114 11.1267 16.6402L4.21875 14.3503V13.0185ZM19.7812 11.5373L14.4458 13.3015C13.7772 13.5244 13.187 13.89 12.7031 14.3569V4.02188L19.7812 1.6755V11.5373ZM19.7812 13.0185V14.3503L12.8733 16.6403C13.1886 15.7115 13.9213 14.9588 14.8889 14.6362L19.7812 13.0185ZM11.2969 4.02188V14.3572C10.8127 13.89 10.222 13.5241 9.55256 13.301L4.21875 11.5373V1.6755L11.2969 4.02188ZM4.21875 22.3645V19.4011L9.42933 20.8828L4.21875 22.3645ZM19.7812 22.3645L14.5707 20.8828L19.7812 19.4011V22.3645ZM22.5938 17.1394L12 20.1518L1.40625 17.1394V4.52878L2.8125 5.05613V14.8579C2.8125 15.161 3.0067 15.43 3.29437 15.5253L11.7787 18.3378C11.8381 18.358 11.9244 18.3735 12 18.3735C12.0744 18.3735 12.1618 18.358 12.2213 18.3378L20.7056 15.5253C20.9933 15.43 21.1875 15.161 21.1875 14.8579C21.1875 14.3761 21.1875 5.54011 21.1875 5.05613L22.5938 4.52878V17.1394Z" fill="#636363"/>
</g>
<defs>
<clipPath id="clip0_1_325">
<rect width="24" height="24" fill="white" transform="translate(0 -0.0012207)"/>
</clipPath>
</defs>
</svg>
