<svg width="24" height="25" viewBox="0 0 24 25" fill="none" xmlns="http://www.w3.org/2000/svg">
<path d="M0 12.25C0 18.8774 5.37258 24.25 12 24.25C18.6274 24.25 24 18.8774 24 12.25C24 5.62258 18.6274 0.25 12 0.25C5.37258 0.25 0 5.62258 0 12.25Z" fill="#636363"/>
<path d="M8.7 18.25H6.15V10.225H8.7V18.25ZM7.425 9.1C6.6 9.1 6 8.5 6 7.675C6 6.85 6.675 6.25 7.425 6.25C8.25 6.25 8.85 6.85 8.85 7.675C8.85 8.5 8.25 9.1 7.425 9.1ZM18 18.25H15.45V13.9C15.45 12.625 14.925 12.25 14.175 12.25C13.425 12.25 12.675 12.85 12.675 13.975V18.25H10.125V10.225H12.525V11.35C12.75 10.825 13.65 10 14.925 10C16.35 10 17.85 10.825 17.85 13.3V18.25H18Z" fill="white"/>
</svg>
