<svg width="24" height="25" viewBox="0 0 24 25" fill="none" xmlns="http://www.w3.org/2000/svg">
<path d="M6.34297 5.438C6.43595 5.53087 6.50971 5.64116 6.56003 5.76256C6.61036 5.88396 6.63626 6.01409 6.63626 6.1455C6.63626 6.27692 6.61036 6.40704 6.56003 6.52844C6.50971 6.64984 6.43595 6.76013 6.34297 6.853C4.84241 8.35382 3.99943 10.3892 3.99943 12.5115C3.99943 14.6338 4.84241 16.6692 6.34297 18.17C6.43582 18.2629 6.50945 18.3732 6.55968 18.4946C6.6099 18.6159 6.63572 18.746 6.63568 18.8774C6.63563 19.0087 6.60971 19.1388 6.55941 19.2601C6.5091 19.3814 6.43538 19.4917 6.34247 19.5845C6.24956 19.6773 6.13928 19.751 6.01791 19.8012C5.89654 19.8514 5.76647 19.8773 5.63512 19.8772C5.50377 19.8772 5.37372 19.8512 5.25239 19.8009C5.13105 19.7506 5.02082 19.6769 4.92797 19.584C1.02197 15.678 1.02197 9.344 4.92797 5.438C5.02085 5.34502 5.13114 5.27127 5.25253 5.22094C5.37393 5.17062 5.50406 5.14471 5.63547 5.14471C5.76689 5.14471 5.89702 5.17062 6.01841 5.22094C6.13981 5.27127 6.2501 5.34502 6.34297 5.438ZM19.074 5.438C22.98 9.345 22.98 15.678 19.074 19.584C18.8854 19.7662 18.6328 19.867 18.3706 19.8647C18.1084 19.8624 17.8576 19.7572 17.6722 19.5718C17.4867 19.3864 17.3816 19.1356 17.3793 18.8734C17.377 18.6112 17.4778 18.3586 17.66 18.17C19.1605 16.6692 20.0035 14.6338 20.0035 12.5115C20.0035 10.3892 19.1605 8.35382 17.66 6.853C17.4723 6.66549 17.3669 6.41112 17.3668 6.14585C17.3667 5.88058 17.472 5.62614 17.6595 5.4385C17.847 5.25086 18.1013 5.14539 18.3666 5.1453C18.6319 5.1452 18.8863 5.25049 19.074 5.438ZM9.30997 8.312C9.49745 8.49953 9.60276 8.75384 9.60276 9.019C9.60276 9.28417 9.49745 9.53847 9.30997 9.726C8.94593 10.09 8.65715 10.5222 8.46012 10.9978C8.2631 11.4734 8.16169 11.9832 8.16169 12.498C8.16169 13.0128 8.2631 13.5226 8.46012 13.9982C8.65715 14.4738 8.94593 14.906 9.30997 15.27C9.40548 15.3622 9.48167 15.4726 9.53408 15.5946C9.58648 15.7166 9.61407 15.8478 9.61522 15.9806C9.61638 16.1134 9.59108 16.2451 9.5408 16.368C9.49052 16.4909 9.41626 16.6025 9.32237 16.6964C9.22848 16.7903 9.11682 16.8645 8.99393 16.9148C8.87103 16.9651 8.73935 16.9904 8.60657 16.9893C8.47379 16.9881 8.34257 16.9605 8.22057 16.9081C8.09857 16.8557 7.98822 16.7795 7.89597 16.684C6.7858 15.5738 6.16212 14.068 6.16212 12.498C6.16212 10.928 6.7858 9.42221 7.89597 8.312C8.0835 8.12453 8.33781 8.01921 8.60297 8.01921C8.86814 8.01921 9.12245 8.12453 9.30997 8.312ZM16.269 8.312C17.3791 9.42221 18.0028 10.928 18.0028 12.498C18.0028 14.068 17.3791 15.5738 16.269 16.684C16.1761 16.7769 16.0659 16.8506 15.9446 16.9009C15.8232 16.9512 15.6932 16.9772 15.5618 16.9772C15.4305 16.9773 15.3004 16.9514 15.179 16.9012C15.0577 16.851 14.9474 16.7773 14.8545 16.6845C14.7616 16.5917 14.6879 16.4814 14.6375 16.3601C14.5872 16.2388 14.5613 16.1087 14.5613 15.9774C14.5612 15.846 14.587 15.7159 14.6373 15.5946C14.6875 15.4732 14.7611 15.3629 14.854 15.27C15.218 14.906 15.5068 14.4738 15.7038 13.9982C15.9009 13.5226 16.0023 13.0128 16.0023 12.498C16.0023 11.9832 15.9009 11.4734 15.7038 10.9978C15.5068 10.5222 15.218 10.09 14.854 9.726C14.6665 9.53836 14.5612 9.28392 14.5613 9.01865C14.5614 8.75338 14.6668 8.49901 14.8545 8.3115C15.0421 8.12399 15.2966 8.0187 15.5618 8.0188C15.8271 8.01889 16.0815 8.12436 16.269 8.312ZM12.082 11.082C12.279 11.082 12.474 11.1208 12.656 11.1962C12.838 11.2716 13.0033 11.3821 13.1426 11.5213C13.2819 11.6606 13.3924 11.826 13.4678 12.008C13.5432 12.19 13.582 12.385 13.582 12.582C13.582 12.779 13.5432 12.974 13.4678 13.156C13.3924 13.338 13.2819 13.5034 13.1426 13.6427C13.0033 13.7819 12.838 13.8924 12.656 13.9678C12.474 14.0432 12.279 14.082 12.082 14.082C11.6841 14.082 11.3026 13.924 11.0213 13.6427C10.74 13.3614 10.582 12.9798 10.582 12.582C10.582 12.1842 10.74 11.8026 11.0213 11.5213C11.3026 11.24 11.6841 11.082 12.082 11.082Z" fill="white"/>
</svg>
