<svg width="24" height="25" viewBox="0 0 24 25" fill="none" xmlns="http://www.w3.org/2000/svg">
<path d="M12 23.4779L5.636 17.1139C4.37734 15.8552 3.52019 14.2516 3.17293 12.5058C2.82567 10.7599 3.00391 8.95035 3.6851 7.30582C4.36629 5.66129 5.51984 4.25569 6.99988 3.26677C8.47992 2.27784 10.22 1.75 12 1.75C13.78 1.75 15.5201 2.27784 17.0001 3.26677C18.4802 4.25569 19.6337 5.66129 20.3149 7.30582C20.9961 8.95035 21.1743 10.7599 20.8271 12.5058C20.4798 14.2516 19.6227 15.8552 18.364 17.1139L12 23.4779ZM16.95 15.6999C17.9289 14.7209 18.5955 13.4736 18.8656 12.1158C19.1356 10.7579 18.9969 9.35052 18.4671 8.07148C17.9373 6.79244 17.04 5.69923 15.8889 4.93009C14.7378 4.16095 13.3844 3.75043 12 3.75043C10.6156 3.75043 9.26222 4.16095 8.11109 4.93009C6.95996 5.69923 6.06275 6.79244 5.53292 8.07148C5.00308 9.35052 4.86442 10.7579 5.13445 12.1158C5.40449 13.4736 6.07111 14.7209 7.05 15.6999L12 20.6499L16.95 15.6999ZM12 12.7499C11.4696 12.7499 10.9609 12.5392 10.5858 12.1641C10.2107 11.7891 10 11.2804 10 10.7499C10 10.2195 10.2107 9.71078 10.5858 9.33571C10.9609 8.96064 11.4696 8.74992 12 8.74992C12.5304 8.74992 13.0391 8.96064 13.4142 9.33571C13.7893 9.71078 14 10.2195 14 10.7499C14 11.2804 13.7893 11.7891 13.4142 12.1641C13.0391 12.5392 12.5304 12.7499 12 12.7499Z" fill="#28292B"/>
</svg>
