<svg width="117" height="108" viewBox="0 0 117 108" fill="none" xmlns="http://www.w3.org/2000/svg">
<g clip-path="url(#clip0_1_203)">
<path opacity="0.1" fill-rule="evenodd" clip-rule="evenodd" d="M92.6401 69.2336C85.0663 82.1997 72.0657 86.6402 60.3847 90.1206C50.0087 93.2122 40.1152 93.1316 32.8103 87.06C24.6567 80.283 17.3585 70.3017 19.6844 56.2917C21.9965 42.3649 33.3118 31.3967 43.6309 21.8824C53.6296 12.6636 64.6413 4.17314 75.0674 5.22831C86.0964 6.34449 93.7761 15.2424 97.0843 27.2921C100.525 39.8237 100.597 55.6111 92.6401 69.2336Z" fill="#B1CF1F"/>
<path opacity="0.1" fill-rule="evenodd" clip-rule="evenodd" d="M50.5283 79.403C34.1041 78.2911 23.4245 70.391 14.3297 63.1215C6.2509 56.6641 1.52464 49.4885 3.94482 42.1686C6.64621 33.9982 12.9128 25.3683 27.8142 22.3373C42.627 19.3243 58.9047 23.8115 73.2692 28.0678C87.1877 32.192 100.882 37.2931 104.909 45.1812C109.169 53.5254 104.153 62.0666 93.9147 68.5093C83.2675 75.2096 67.7839 80.5712 50.5283 79.403Z" fill="#B1CF1F"/>
<path opacity="0.2" fill-rule="evenodd" clip-rule="evenodd" d="M48.9926 73.0292C34.5208 65.1834 28.0973 53.5557 22.8526 43.1608C18.1937 33.9272 16.8821 25.4357 22.1289 19.7868C27.9853 13.4816 37.2747 8.24217 52.0859 11.6871C66.809 15.1116 79.7431 25.9655 91.0335 35.8134C101.973 45.3555 112.303 55.6928 112.682 64.5412C113.083 73.9013 104.968 79.5803 92.9773 81.1783C80.5075 82.8402 64.1971 81.2722 48.9926 73.0292Z" stroke="#B1CF1F"/>
<path opacity="0.2" fill-rule="evenodd" clip-rule="evenodd" d="M28.3784 34.6112C37.4634 20.2034 51.4336 15.1809 63.9394 11.2318C75.0481 7.72386 85.3641 7.7292 92.4327 14.384C100.323 21.812 107.028 32.7919 103.324 48.3101C99.6413 63.7361 86.8344 75.9655 75.1995 86.578C63.9259 96.861 51.6617 106.347 40.8789 105.268C29.4725 104.126 22.2705 94.3482 19.9171 81.0463C17.4696 67.2125 18.8335 49.7484 28.3784 34.6112Z" stroke="#B1CF1F"/>
<path opacity="0.5" fill-rule="evenodd" clip-rule="evenodd" d="M60.5074 10.0491C73.2552 10.7738 81.7437 21.1996 88.9877 30.8297C95.4223 39.384 99.2811 49.1012 97.6106 59.3743C95.746 70.841 91.1337 83.1225 79.68 88.0681C68.2944 92.9843 55.5662 87.5708 44.3258 82.3822C33.4344 77.3548 22.6892 70.9612 19.3521 60.2209C15.822 48.8595 19.4687 36.7633 27.2167 27.3179C35.2745 17.4947 47.1142 9.28763 60.5074 10.0491Z" stroke="#B1CF1F"/>
</g>
<path fill-rule="evenodd" clip-rule="evenodd" d="M43.4882 40.4882C43.8007 40.1756 44.2247 40 44.6667 40H46.0474C45.8011 40.6965 45.4012 41.3365 44.8689 41.8689C44.3365 42.4012 43.6965 42.8011 43 43.0474V41.6667C43 41.2247 43.1756 40.8007 43.4882 40.4882ZM44.6667 36.6667H48H71.3334C72.6594 36.6667 73.9312 37.1935 74.8689 38.1312C75.8066 39.0688 76.3333 40.3406 76.3333 41.6667V54.9964C76.3333 54.9976 76.3334 54.9988 76.3334 55C76.3334 55.0012 76.3333 55.0024 76.3333 55.0036V58.3334C76.3333 59.6594 75.8066 60.9312 74.8689 61.8689C73.9312 62.8066 72.6594 63.3334 71.3334 63.3334H68H44.6667C43.3406 63.3334 42.0688 62.8066 41.1312 61.8689C40.1935 60.9312 39.6667 59.6594 39.6667 58.3334V45V41.6667C39.6667 40.3406 40.1935 39.0688 41.1312 38.1312C42.0688 37.1935 43.3406 36.6667 44.6667 36.6667ZM69.9526 60H71.3334C71.7754 60 72.1993 59.8244 72.5119 59.5119C72.8244 59.1993 73 58.7754 73 58.3334V56.9526C72.3035 57.1989 71.6635 57.5988 71.1312 58.1312C70.5988 58.6635 70.1989 59.3035 69.9526 60ZM73 53.5017C71.4109 53.8261 69.9381 54.6102 68.7741 55.7741C67.6102 56.9381 66.8261 58.4109 66.5017 60H44.6667C44.2247 60 43.8007 59.8244 43.4882 59.5119C43.1756 59.1993 43 58.7754 43 58.3334V46.4984C44.5891 46.174 46.0619 45.3899 47.2259 44.2259C48.3899 43.0619 49.174 41.5891 49.4984 40H71.3334C71.7754 40 72.1993 40.1756 72.5119 40.4882C72.8244 40.8007 73 41.2247 73 41.6667V53.5017ZM54.6667 50C54.6667 48.1591 56.1591 46.6667 58 46.6667C59.841 46.6667 61.3334 48.1591 61.3334 50C61.3334 51.841 59.841 53.3334 58 53.3334C56.1591 53.3334 54.6667 51.841 54.6667 50ZM58 43.3334C54.3181 43.3334 51.3334 46.3181 51.3334 50C51.3334 53.6819 54.3181 56.6667 58 56.6667C61.6819 56.6667 64.6667 53.6819 64.6667 50C64.6667 46.3181 61.6819 43.3334 58 43.3334Z" fill="#B1CF1F"/>
<defs>
<clipPath id="clip0_1_203">
<rect width="117" height="108" fill="white"/>
</clipPath>
</defs>
</svg>
