<svg width="24" height="24" viewBox="0 0 24 24" fill="none" xmlns="http://www.w3.org/2000/svg">
<path d="M12 14.25C10.7574 14.25 9.75 13.2426 9.75 12C9.75 10.7574 10.7574 9.75 12 9.75C13.2426 9.75 14.25 10.7574 14.25 12C14.25 13.2426 13.2426 14.25 12 14.25ZM2.25 14.25C1.00736 14.25 0 13.2426 0 12C0 10.7574 1.00736 9.75 2.25 9.75C3.49264 9.75 4.5 10.7574 4.5 12C4.5 13.2426 3.49264 14.25 2.25 14.25ZM21.75 14.25C20.5074 14.25 19.5 13.2426 19.5 12C19.5 10.7574 20.5074 9.75 21.75 9.75C22.9926 9.75 24 10.7574 24 12C24 13.2426 22.9926 14.25 21.75 14.25Z" fill="#636363"/>
</svg>
