<svg width="25" height="24" viewBox="0 0 25 24" fill="none" xmlns="http://www.w3.org/2000/svg">
<g clip-path="url(#clip0_1_151)">
<path d="M23.0937 3.5625C23.0937 3.17419 22.7789 2.85938 22.3906 2.85938C22.0023 2.85938 21.6875 3.17419 21.6875 3.5625V4.68909C20.7786 5.70028 20.2812 6.9937 20.2812 8.36372V15.5156H18.875V12C18.875 11.6117 18.5602 11.2969 18.1719 11.2969H17.6544C17.7719 10.3077 17.4353 9.00028 15.9364 7.42481C15.007 6.44798 13.8736 5.6355 13.2031 5.22047V4.09908C13.4963 3.99567 13.7651 3.8273 13.9914 3.60094C14.266 3.32634 14.266 2.88117 13.9914 2.60658C13.7169 2.33203 13.2717 2.33203 12.9971 2.60658C12.8643 2.73937 12.6878 2.8125 12.5 2.8125C12.1123 2.8125 11.7969 2.49708 11.7969 2.10938C11.7969 1.72167 12.1123 1.40625 12.5 1.40625C12.8883 1.40625 13.2031 1.09144 13.2031 0.703125C13.2031 0.314812 12.8883 0 12.5 0C11.3369 0 10.3906 0.946266 10.3906 2.10938C10.3906 3.02602 10.9785 3.80756 11.7969 4.09781V5.22023C11.123 5.63672 9.98406 6.45211 9.0556 7.42908C7.56123 9.00159 7.22663 10.3079 7.34499 11.2968H6.8281C6.43979 11.2968 6.12498 11.6116 6.12498 12V15.5156H4.71873V8.36372C4.71873 6.9937 4.22138 5.70028 3.31248 4.68909V3.5625C3.31248 3.17419 2.99766 2.85938 2.60935 2.85938C2.22104 2.85938 1.90623 3.17419 1.90623 3.5625V4.68909C0.997321 5.70028 0.499977 6.9937 0.499977 8.36372V23.2969C0.499977 23.6852 0.81479 24 1.2031 24H23.7969C24.1852 24 24.5 23.6852 24.5 23.2969C24.5 22.6456 24.5 9.02273 24.5 8.36372C24.5 6.9937 24.0026 5.70028 23.0937 4.68909V3.5625ZM22.3906 6.06623C22.8479 6.73889 23.0937 7.53244 23.0937 8.36372V8.48438H21.6875V8.36372C21.6875 7.53244 21.9333 6.73894 22.3906 6.06623ZM21.6875 9.89062H23.0937V15.5156H21.6875V9.89062ZM14.6094 22.5938H10.3906V20.524C10.3906 17.7233 14.6094 17.7177 14.6094 20.5241V22.5938ZM8.98435 20.524V22.5938H7.53123V15.5156H17.4687V22.5938H16.0156V20.5241C16.0156 15.8551 8.98435 15.8457 8.98435 20.524ZM17.4687 12.7031V14.1094H7.53123V12.7031H17.4687ZM10.075 8.3978C10.9385 7.48917 11.9606 6.77766 12.4998 6.44011C13.0364 6.77648 14.0529 7.48519 14.9176 8.39405C15.9717 9.50203 16.4103 10.4761 16.2278 11.2968H8.77187C8.5884 10.4759 9.02466 9.50306 10.075 8.3978ZM1.90623 15.5156V9.89062H3.31248V15.5156H1.90623ZM2.60935 6.06623C3.06662 6.73889 3.31248 7.53244 3.31248 8.36372V8.48438H1.90623V8.36372C1.90623 7.53244 2.15209 6.73894 2.60935 6.06623ZM1.90623 16.9219H6.12498V22.5938H4.71873V19.0312C4.71873 18.6429 4.40391 18.3281 4.0156 18.3281C3.62729 18.3281 3.31248 18.6429 3.31248 19.0312V22.5938H1.90623V16.9219ZM23.0937 22.5938H21.6875V19.0312C21.6875 18.6429 21.3727 18.3281 20.9844 18.3281C20.596 18.3281 20.2812 18.6429 20.2812 19.0312V22.5938H18.875V16.9219H23.0937V22.5938Z" fill="#636363"/>
</g>
<defs>
<clipPath id="clip0_1_151">
<rect width="24" height="24" fill="white" transform="translate(0.499977)"/>
</clipPath>
</defs>
</svg>
