<svg width="24" height="24" viewBox="0 0 24 24" fill="none" xmlns="http://www.w3.org/2000/svg">
<g clip-path="url(#clip0_940_61)">
<path d="M22.6071 22.5938H20.7521V0.703125C20.7521 0.314812 20.4373 0 20.049 0H3.95101C3.56269 0 3.24788 0.314812 3.24788 0.703125V22.5938H1.39294C1.00463 22.5938 0.689819 22.9086 0.689819 23.2969C0.689819 23.6852 1.00463 24 1.39294 24H22.6071C22.9954 24 23.3102 23.6852 23.3102 23.2969C23.3102 22.9086 22.9954 22.5938 22.6071 22.5938ZM9.60324 22.5938V17.8003H14.3967V22.5938H9.60324ZM15.803 22.5938V17.0971C15.803 16.7088 15.4882 16.394 15.0999 16.394H8.90012C8.5118 16.394 8.19699 16.7088 8.19699 17.0971V22.5938H4.65413V1.40625H19.3458V22.5938H15.803Z" fill="#636363"/>
<path d="M10.4882 3.10815H7.04248C6.65417 3.10815 6.33936 3.42297 6.33936 3.81128V7.25697C6.33936 7.64528 6.65417 7.9601 7.04248 7.9601H10.4882C10.8765 7.9601 11.1913 7.64528 11.1913 7.25697V3.81128C11.1913 3.42297 10.8765 3.10815 10.4882 3.10815ZM9.78505 6.55384H7.74561V4.51441H9.78505V6.55384Z" fill="#636363"/>
<path d="M16.9575 3.10815H13.5118C13.1235 3.10815 12.8087 3.42297 12.8087 3.81128V7.25697C12.8087 7.64528 13.1235 7.9601 13.5118 7.9601H16.9575C17.3458 7.9601 17.6606 7.64528 17.6606 7.25697V3.81128C17.6606 3.42297 17.3458 3.10815 16.9575 3.10815ZM16.2544 6.55384H14.2149V4.51441H16.2544V6.55384Z" fill="#636363"/>
<path d="M10.4882 9.65405H7.04248C6.65417 9.65405 6.33936 9.96887 6.33936 10.3572V13.8029C6.33936 14.1912 6.65417 14.506 7.04248 14.506H10.4882C10.8765 14.506 11.1913 14.1912 11.1913 13.8029V10.3572C11.1913 9.96887 10.8765 9.65405 10.4882 9.65405ZM9.78505 13.0997H7.74561V11.0603H9.78505V13.0997Z" fill="#636363"/>
<path d="M16.9575 9.65405H13.5118C13.1235 9.65405 12.8087 9.96887 12.8087 10.3572V13.8029C12.8087 14.1912 13.1235 14.506 13.5118 14.506H16.9575C17.3458 14.506 17.6606 14.1912 17.6606 13.8029V10.3572C17.6606 9.96887 17.3458 9.65405 16.9575 9.65405ZM16.2544 13.0997H14.2149V11.0603H16.2544V13.0997Z" fill="#636363"/>
</g>
<defs>
<clipPath id="clip0_940_61">
<rect width="24" height="24" fill="white"/>
</clipPath>
</defs>
</svg>
