<svg width="25" height="24" viewBox="0 0 25 24" fill="none" xmlns="http://www.w3.org/2000/svg">
<g clip-path="url(#clip0_940_77)">
<path d="M18.125 19.0781C18.125 19.4665 17.8102 19.7812 17.4219 19.7812C17.0335 19.7812 16.7188 19.4665 16.7188 19.0781C16.7188 18.6898 17.0335 18.375 17.4219 18.375C17.8102 18.375 18.125 18.6898 18.125 19.0781Z" fill="#636363"/>
<path d="M14.6094 8.53125H15.4332C16.5278 8.53125 17.557 8.95752 18.331 9.73151C18.4659 9.86664 18.6467 9.9375 18.8283 9.9375C19.0153 9.9375 19.1962 9.86078 19.3253 9.73151C19.7856 9.27118 20.3365 8.935 20.9375 8.73724V10.6406C20.9375 11.029 21.2523 11.3438 21.6406 11.3438C22.029 11.3438 22.3438 11.029 22.3438 10.6406V8.53125H23.0469C23.4352 8.53125 23.75 8.21649 23.75 7.82812V0.703125C23.75 0.314758 23.4352 0 23.0469 0H22.2231C20.9763 0 19.7931 0.411804 18.8281 1.17096C17.8632 0.411804 16.6799 0 15.4332 0H14.6094C14.221 0 13.9062 0.314758 13.9062 0.703125V7.82812C13.9062 8.21649 14.221 8.53125 14.6094 8.53125ZM22.3438 1.40625V7.125H22.2231C21.2458 7.125 20.3256 7.37878 19.5312 7.82556V2.41553C20.2776 1.76331 21.2226 1.40625 22.2231 1.40625H22.3438ZM15.3125 1.40625H15.4332C16.4333 1.40625 17.3788 1.76221 18.125 2.41406V7.82538C17.312 7.36816 16.3914 7.125 15.4332 7.125H15.3125V1.40625Z" fill="#636363"/>
<path d="M1.95312 24H23.0469C23.4352 24 23.75 23.6853 23.75 23.2969V16.2656C23.75 15.8773 23.4352 15.5625 23.0469 15.5625H16.6481C16.3214 13.9598 14.9009 12.75 13.2031 12.75H11.0938V12.0324C11.9701 11.3721 12.5 10.3338 12.5 9.23439V7.97865C12.5 6.18751 11.2402 4.63185 9.56958 4.36012C7.41058 4.00892 5.46875 5.65724 5.46875 7.82814V9.23439C5.46875 10.3338 5.99866 11.3721 6.875 12.0324V12.75H4.76562C2.82709 12.75 1.25 14.3271 1.25 16.2656V23.2969C1.25 23.6853 1.56476 24 1.95312 24ZM22.3438 22.5938H12.5V16.9688H22.3438V22.5938ZM6.875 7.82814C6.875 6.56856 7.99323 5.52852 9.34381 5.74824C10.3414 5.91048 11.0938 6.8694 11.0938 7.97865V9.23439C11.0938 9.98549 10.6986 10.6639 10.0369 11.0491C9.82062 11.1749 9.6875 11.4064 9.6875 11.6569V13.1618L8.98438 13.8649L8.28125 13.1618V11.6569C8.28125 11.4066 8.14813 11.1749 7.93188 11.0491C7.27014 10.6639 6.875 9.98549 6.875 9.23439V7.82814ZM2.65625 16.2656C2.65625 15.1026 3.60254 14.1563 4.76562 14.1563H7.2868L8.48724 15.3565C8.62439 15.4938 8.80438 15.5625 8.98438 15.5625C9.16437 15.5625 9.34436 15.4938 9.48151 15.3565L10.6819 14.1563H13.2031C14.1198 14.1563 14.9012 14.744 15.1917 15.5625H11.7969C11.4085 15.5625 11.0938 15.8773 11.0938 16.2656V20.4862C10.5058 20.0438 9.77521 19.7813 8.98438 19.7813H5.46875V16.2656C5.46875 15.8773 5.15399 15.5625 4.76562 15.5625C4.37726 15.5625 4.0625 15.8773 4.0625 16.2656V20.4844C4.0625 20.8728 4.37726 21.1875 4.76562 21.1875H8.98438C9.90118 21.1875 10.683 21.7753 10.9733 22.5938H2.65625V16.2656Z" fill="#636363"/>
</g>
<defs>
<clipPath id="clip0_940_77">
<rect width="24" height="24" fill="white" transform="translate(0.5)"/>
</clipPath>
</defs>
</svg>
