<svg width="25" height="24" viewBox="0 0 25 24" fill="none" xmlns="http://www.w3.org/2000/svg">
<g clip-path="url(#clip0_940_95)">
<path d="M7 11.5C6.40905 11.5 5.82389 11.3836 5.27792 11.1575C4.73196 10.9313 4.23588 10.5998 3.81802 10.182C3.40016 9.76412 3.06869 9.26804 2.84254 8.72208C2.6164 8.17611 2.5 7.59095 2.5 7C2.5 6.40905 2.6164 5.82389 2.84254 5.27792C3.06869 4.73196 3.40016 4.23588 3.81802 3.81802C4.23588 3.40016 4.73196 3.06869 5.27792 2.84254C5.82389 2.6164 6.40905 2.5 7 2.5C8.19347 2.5 9.33807 2.97411 10.182 3.81802C11.0259 4.66193 11.5 5.80653 11.5 7C11.5 8.19347 11.0259 9.33807 10.182 10.182C9.33807 11.0259 8.19347 11.5 7 11.5ZM7.5 21.5C6.30653 21.5 5.16193 21.0259 4.31802 20.182C3.47411 19.3381 3 18.1935 3 17C3 15.8065 3.47411 14.6619 4.31802 13.818C5.16193 12.9741 6.30653 12.5 7.5 12.5C8.69347 12.5 9.83807 12.9741 10.682 13.818C11.5259 14.6619 12 15.8065 12 17C12 18.1935 11.5259 19.3381 10.682 20.182C9.83807 21.0259 8.69347 21.5 7.5 21.5ZM17.5 11.5C16.9091 11.5 16.3239 11.3836 15.7779 11.1575C15.232 10.9313 14.7359 10.5998 14.318 10.182C13.9002 9.76412 13.5687 9.26804 13.3425 8.72208C13.1164 8.17611 13 7.59095 13 7C13 6.40905 13.1164 5.82389 13.3425 5.27792C13.5687 4.73196 13.9002 4.23588 14.318 3.81802C14.7359 3.40016 15.232 3.06869 15.7779 2.84254C16.3239 2.6164 16.9091 2.5 17.5 2.5C18.6935 2.5 19.8381 2.97411 20.682 3.81802C21.5259 4.66193 22 5.80653 22 7C22 8.19347 21.5259 9.33807 20.682 10.182C19.8381 11.0259 18.6935 11.5 17.5 11.5ZM17.5 21.5C16.3065 21.5 15.1619 21.0259 14.318 20.182C13.4741 19.3381 13 18.1935 13 17C13 15.8065 13.4741 14.6619 14.318 13.818C15.1619 12.9741 16.3065 12.5 17.5 12.5C18.6935 12.5 19.8381 12.9741 20.682 13.818C21.5259 14.6619 22 15.8065 22 17C22 18.1935 21.5259 19.3381 20.682 20.182C19.8381 21.0259 18.6935 21.5 17.5 21.5ZM7 9.5C7.66304 9.5 8.29893 9.23661 8.76777 8.76777C9.23661 8.29893 9.5 7.66304 9.5 7C9.5 6.33696 9.23661 5.70107 8.76777 5.23223C8.29893 4.76339 7.66304 4.5 7 4.5C6.33696 4.5 5.70107 4.76339 5.23223 5.23223C4.76339 5.70107 4.5 6.33696 4.5 7C4.5 7.66304 4.76339 8.29893 5.23223 8.76777C5.70107 9.23661 6.33696 9.5 7 9.5ZM7.5 19.5C8.16304 19.5 8.79893 19.2366 9.26777 18.7678C9.73661 18.2989 10 17.663 10 17C10 16.337 9.73661 15.7011 9.26777 15.2322C8.79893 14.7634 8.16304 14.5 7.5 14.5C6.83696 14.5 6.20107 14.7634 5.73223 15.2322C5.26339 15.7011 5 16.337 5 17C5 17.663 5.26339 18.2989 5.73223 18.7678C6.20107 19.2366 6.83696 19.5 7.5 19.5ZM17.5 9.5C18.163 9.5 18.7989 9.23661 19.2678 8.76777C19.7366 8.29893 20 7.66304 20 7C20 6.33696 19.7366 5.70107 19.2678 5.23223C18.7989 4.76339 18.163 4.5 17.5 4.5C16.837 4.5 16.2011 4.76339 15.7322 5.23223C15.2634 5.70107 15 6.33696 15 7C15 7.66304 15.2634 8.29893 15.7322 8.76777C16.2011 9.23661 16.837 9.5 17.5 9.5ZM17.5 19.5C18.163 19.5 18.7989 19.2366 19.2678 18.7678C19.7366 18.2989 20 17.663 20 17C20 16.337 19.7366 15.7011 19.2678 15.2322C18.7989 14.7634 18.163 14.5 17.5 14.5C16.837 14.5 16.2011 14.7634 15.7322 15.2322C15.2634 15.7011 15 16.337 15 17C15 17.663 15.2634 18.2989 15.7322 18.7678C16.2011 19.2366 16.837 19.5 17.5 19.5Z" fill="#389ED9"/>
</g>
<defs>
<clipPath id="clip0_940_95">
<rect width="24" height="24" fill="white" transform="translate(0.5)"/>
</clipPath>
</defs>
</svg>
