<svg width="24" height="25" viewBox="0 0 24 25" fill="none" xmlns="http://www.w3.org/2000/svg">
<path d="M9.366 11.432C10.3043 13.0805 11.6695 14.4457 13.318 15.384L14.202 14.146C14.3442 13.9469 14.5543 13.8069 14.7928 13.7523C15.0313 13.6978 15.2814 13.7325 15.496 13.85C16.9103 14.6229 18.4722 15.0878 20.079 15.214C20.3298 15.2339 20.5638 15.3475 20.7345 15.5323C20.9052 15.7171 21 15.9594 21 16.211V20.673C21.0001 20.9206 20.9083 21.1594 20.7424 21.3432C20.5765 21.527 20.3483 21.6427 20.102 21.668C19.5698 21.7229 19.0351 21.7503 18.5 21.75C9.94 21.75 3 14.81 3 6.25C3 5.712 3.027 5.178 3.082 4.648C3.10725 4.4017 3.22298 4.17352 3.40679 4.00763C3.5906 3.84175 3.82941 3.74995 4.077 3.75H8.539C8.79056 3.74997 9.0329 3.84475 9.21768 4.01545C9.40247 4.18615 9.51613 4.42022 9.536 4.671C9.66222 6.27779 10.1271 7.83968 10.9 9.254C11.0175 9.46856 11.0522 9.71874 10.9977 9.9572C10.9431 10.1956 10.8031 10.4058 10.604 10.548L9.366 11.432ZM6.844 10.775L8.744 9.418C8.20478 8.25409 7.83535 7.01884 7.647 5.75H5.01C5.004 5.916 5.001 6.083 5.001 6.25C5 13.706 11.044 19.75 18.5 19.75C18.667 19.75 18.834 19.747 19 19.74V17.103C17.7312 16.9146 16.4959 16.5452 15.332 16.006L13.975 17.906C13.4287 17.6937 12.898 17.4431 12.387 17.156L12.329 17.123C10.3676 16.0067 8.74328 14.3824 7.627 12.421L7.594 12.363C7.30691 11.852 7.05628 11.3213 6.844 10.775Z" fill="#28292B"/>
</svg>
