<svg width="25" height="24" viewBox="0 0 25 24" fill="none" xmlns="http://www.w3.org/2000/svg">
<path d="M6.89995 3C8.56496 3.00022 10.1754 3.59376 11.4423 4.67411C12.7092 5.75447 13.5497 7.25093 13.8129 8.895C14.4155 8.29318 15.1307 7.81604 15.9178 7.49088C16.7049 7.16571 17.5483 6.99891 18.3999 7H22.8999V9.5C22.8999 10.3536 22.7318 11.1988 22.4052 11.9874C22.0785 12.7761 21.5997 13.4926 20.9961 14.0962C20.3926 14.6998 19.676 15.1786 18.8874 15.5052C18.0988 15.8319 17.2535 16 16.3999 16H13.8999V21H11.8999V13H9.89995C8.04343 13 6.26296 12.2625 4.9502 10.9497C3.63745 9.63699 2.89995 7.85652 2.89995 6V3H6.89995ZM20.8999 9H18.3999C17.2065 9 16.0619 9.47411 15.218 10.318C14.3741 11.1619 13.8999 12.3065 13.8999 13.5V14H16.3999C16.9909 14 17.5761 13.8836 18.122 13.6575C18.668 13.4313 19.1641 13.0998 19.5819 12.682C19.9998 12.2641 20.3313 11.768 20.5574 11.2221C20.7836 10.6761 20.8999 10.0909 20.8999 9.5V9ZM6.89995 5H4.89995V6C4.89995 7.32608 5.42673 8.59785 6.36441 9.53553C7.3021 10.4732 8.57387 11 9.89995 11H11.8999V10C11.8999 8.67392 11.3732 7.40215 10.4355 6.46447C9.4978 5.52678 8.22603 5 6.89995 5Z" fill="#636363"/>
</svg>
