<svg width="24" height="25" viewBox="0 0 24 25" fill="none" xmlns="http://www.w3.org/2000/svg">
<path d="M0 12.25C0 18.8774 5.37258 24.25 12 24.25C18.6274 24.25 24 18.8774 24 12.25C24 5.62258 18.6274 0.25 12 0.25C5.37258 0.25 0 5.62258 0 12.25Z" fill="#636363"/>
<path d="M17.7 9.32505C17.55 8.80005 17.175 8.42505 16.65 8.27505C15.75 8.05005 11.925 8.05005 11.925 8.05005C11.925 8.05005 8.175 8.05005 7.2 8.27505C6.675 8.42505 6.3 8.80005 6.15 9.32505C6 10.3 6 12.25 6 12.25C6 12.25 6 14.2 6.225 15.175C6.375 15.7 6.75 16.075 7.275 16.225C8.175 16.45 12 16.4501 12 16.4501C12 16.4501 15.75 16.45 16.725 16.225C17.25 16.075 17.625 15.7 17.775 15.175C18 14.2 18 12.25 18 12.25C18 12.25 18 10.3 17.7 9.32505ZM10.8 14.05V10.45L13.95 12.25L10.8 14.05Z" fill="white"/>
</svg>
