<svg width="12" height="9" viewBox="0 0 12 9" fill="none" xmlns="http://www.w3.org/2000/svg">
<path d="M11.7 1.32505C11.55 0.800049 11.175 0.425049 10.65 0.275049C9.75001 0.050049 5.925 0.0500488 5.925 0.0500488C5.925 0.0500488 2.175 0.050049 1.2 0.275049C0.675005 0.425049 0.299998 0.800049 0.149998 1.32505C-2.29105e-06 2.30005 0 4.25005 0 4.25005C0 4.25005 2.27988e-06 6.20005 0.225002 7.17505C0.375002 7.70005 0.749998 8.07505 1.275 8.22505C2.175 8.45005 6 8.45005 6 8.45005C6 8.45005 9.74999 8.45005 10.725 8.22505C11.25 8.07505 11.625 7.70005 11.775 7.17505C12 6.20005 12 4.25005 12 4.25005C12 4.25005 12 2.30005 11.7 1.32505ZM4.8 6.05005V2.45005L7.95 4.25005L4.8 6.05005Z" fill="white"/>
</svg>
